HIERARCHY
ROOT mixamorig:Hips
{
	OFFSET -0.000008 104.274872 1.554316
	CHANNELS 6 Xposition Yposition Zposition Xrotation Yrotation Zrotation
	JOINT mixamorig:Spine
	{
		OFFSET -0.000005 10.181595 0.131519
		CHANNELS 6 Xposition Yposition Zposition Xrotation Yrotation Zrotation
		JOINT mixamorig:Spine1
		{
			OFFSET -0.000000 9.893959 -1.470707
			CHANNELS 6 Xposition Yposition Zposition Xrotation Yrotation Zrotation
			JOINT mixamorig:Spine2
			{
				OFFSET -0.000000 9.220757 -1.370641
				CHANNELS 6 Xposition Yposition Zposition Xrotation Yrotation Zrotation
				JOINT mixamorig:Neck
				{
					OFFSET 0.000001 16.740417 -2.049036
					CHANNELS 6 Xposition Yposition Zposition Xrotation Yrotation Zrotation
					JOINT mixamorig:Head
					{
						OFFSET 0.000000 9.617874 1.685006
						CHANNELS 6 Xposition Yposition Zposition Xrotation Yrotation Zrotation
						JOINT mixamorig:HeadTop_End
						{
							OFFSET 0.000002 22.037354 7.501101
							CHANNELS 6 Xposition Yposition Zposition Xrotation Yrotation Zrotation
							End Site
							{
								OFFSET 0.000168 2310.654297 -282.823242
							}
						}
					}
				}
				JOINT mixamorig:RightShoulder
				{
					OFFSET -4.569970 11.014908 -2.160885
					CHANNELS 6 Xposition Yposition Zposition Xrotation Yrotation Zrotation
					JOINT mixamorig:RightArm
					{
						OFFSET -10.592851 -0.524811 -2.232101
						CHANNELS 6 Xposition Yposition Zposition Xrotation Yrotation Zrotation
						JOINT mixamorig:RightForeArm
						{
							OFFSET -27.841511 0.000031 -0.000004
							CHANNELS 6 Xposition Yposition Zposition Xrotation Yrotation Zrotation
							JOINT mixamorig:RightHand
							{
								OFFSET -28.328831 -0.000015 0.000015
								CHANNELS 6 Xposition Yposition Zposition Xrotation Yrotation Zrotation
								JOINT mixamorig:RightHandThumb1
								{
									OFFSET -2.464806 -1.573990 2.681852
									CHANNELS 6 Xposition Yposition Zposition Xrotation Yrotation Zrotation
									JOINT mixamorig:RightHandThumb2
									{
										OFFSET -3.215179 -1.872803 1.924282
										CHANNELS 6 Xposition Yposition Zposition Xrotation Yrotation Zrotation
										JOINT mixamorig:RightHandThumb3
										{
											OFFSET -2.654831 -1.527969 1.512609
											CHANNELS 6 Xposition Yposition Zposition Xrotation Yrotation Zrotation
											JOINT mixamorig:RightHandThumb4
											{
												OFFSET -2.018814 -1.152008 1.108052
												CHANNELS 6 Xposition Yposition Zposition Xrotation Yrotation Zrotation
												End Site
												{
													OFFSET -188.809540 -114.533607 132.431396
												}
											}
										}
									}
								}
								JOINT mixamorig:RightHandIndex1
								{
									OFFSET -9.108284 -0.517868 2.259835
									CHANNELS 6 Xposition Yposition Zposition Xrotation Yrotation Zrotation
									JOINT mixamorig:RightHandIndex2
									{
										OFFSET -3.699989 0.000000 0.001215
										CHANNELS 6 Xposition Yposition Zposition Xrotation Yrotation Zrotation
										JOINT mixamorig:RightHandIndex3
										{
											OFFSET -2.850006 0.000031 -0.000522
											CHANNELS 6 Xposition Yposition Zposition Xrotation Yrotation Zrotation
											JOINT mixamorig:RightHandIndex4
											{
												OFFSET -2.772186 -0.000015 -0.000020
												CHANNELS 6 Xposition Yposition Zposition Xrotation Yrotation Zrotation
												End Site
												{
													OFFSET -277.218445 0.000000 -0.050231
												}
											}
										}
									}
								}
								JOINT mixamorig:RightHandMiddle1
								{
									OFFSET -9.532516 -0.000031 -0.000023
									CHANNELS 6 Xposition Yposition Zposition Xrotation Yrotation Zrotation
									JOINT mixamorig:RightHandMiddle2
									{
										OFFSET -3.700005 -0.000015 0.003713
										CHANNELS 6 Xposition Yposition Zposition Xrotation Yrotation Zrotation
										JOINT mixamorig:RightHandMiddle3
										{
											OFFSET -2.949974 0.000015 -0.002054
											CHANNELS 6 Xposition Yposition Zposition Xrotation Yrotation Zrotation
											JOINT mixamorig:RightHandMiddle4
											{
												OFFSET -2.946640 0.000000 -0.000156
												CHANNELS 6 Xposition Yposition Zposition Xrotation Yrotation Zrotation
												End Site
												{
													OFFSET -294.664337 0.000000 -0.113670
												}
											}
										}
									}
								}
								JOINT mixamorig:RightHandRing1
								{
									OFFSET -9.103600 -0.043076 -1.865134
									CHANNELS 6 Xposition Yposition Zposition Xrotation Yrotation Zrotation
									JOINT mixamorig:RightHandRing2
									{
										OFFSET -3.379288 0.000000 -0.001055
										CHANNELS 6 Xposition Yposition Zposition Xrotation Yrotation Zrotation
										JOINT mixamorig:RightHandRing3
										{
											OFFSET -2.889687 -0.000015 0.000379
											CHANNELS 6 Xposition Yposition Zposition Xrotation Yrotation Zrotation
											JOINT mixamorig:RightHandRing4
											{
												OFFSET -2.638809 -0.000015 0.000941
												CHANNELS 6 Xposition Yposition Zposition Xrotation Yrotation Zrotation
												End Site
												{
													OFFSET -263.880371 0.000000 0.516020
												}
											}
										}
									}
								}
								JOINT mixamorig:RightHandPinky1
								{
									OFFSET -8.076683 -0.486710 -3.806280
									CHANNELS 6 Xposition Yposition Zposition Xrotation Yrotation Zrotation
									JOINT mixamorig:RightHandPinky2
									{
										OFFSET -3.600014 -0.000015 -0.003747
										CHANNELS 6 Xposition Yposition Zposition Xrotation Yrotation Zrotation
										JOINT mixamorig:RightHandPinky3
										{
											OFFSET -2.099983 0.000000 -0.005739
											CHANNELS 6 Xposition Yposition Zposition Xrotation Yrotation Zrotation
											JOINT mixamorig:RightHandPinky4
											{
												OFFSET -2.115768 -0.000031 -0.003680
												CHANNELS 6 Xposition Yposition Zposition Xrotation Yrotation Zrotation
												End Site
												{
													OFFSET -211.577087 0.000000 -0.350686
												}
											}
										}
									}
								}
							}
						}
					}
				}
				JOINT mixamorig:LeftShoulder
				{
					OFFSET 4.570447 11.014725 -2.160855
					CHANNELS 6 Xposition Yposition Zposition Xrotation Yrotation Zrotation
					JOINT mixamorig:LeftArm
					{
						OFFSET 10.592371 -0.524597 -2.232119
						CHANNELS 6 Xposition Yposition Zposition Xrotation Yrotation Zrotation
						JOINT mixamorig:LeftForeArm
						{
							OFFSET 27.841532 -0.000031 0.000026
							CHANNELS 6 Xposition Yposition Zposition Xrotation Yrotation Zrotation
							JOINT mixamorig:LeftHand
							{
								OFFSET 28.328846 -0.000061 0.000022
								CHANNELS 6 Xposition Yposition Zposition Xrotation Yrotation Zrotation
								JOINT mixamorig:LeftHandThumb1
								{
									OFFSET 2.466141 -1.576172 2.681732
									CHANNELS 6 Xposition Yposition Zposition Xrotation Yrotation Zrotation
									JOINT mixamorig:LeftHandThumb2
									{
										OFFSET 3.217812 -1.872070 1.916482
										CHANNELS 6 Xposition Yposition Zposition Xrotation Yrotation Zrotation
										JOINT mixamorig:LeftHandThumb3
										{
											OFFSET 2.656029 -1.528778 1.514513
											CHANNELS 6 Xposition Yposition Zposition Xrotation Yrotation Zrotation
											JOINT mixamorig:LeftHandThumb4
											{
												OFFSET 2.020889 -1.154053 1.115139
												CHANNELS 6 Xposition Yposition Zposition Xrotation Yrotation Zrotation
												End Site
												{
													OFFSET 190.885437 -115.081749 130.048782
												}
											}
										}
									}
								}
								JOINT mixamorig:LeftHandIndex1
								{
									OFFSET 9.109314 -0.518021 2.259871
									CHANNELS 6 Xposition Yposition Zposition Xrotation Yrotation Zrotation
									JOINT mixamorig:LeftHandIndex2
									{
										OFFSET 3.699989 0.000000 -0.000322
										CHANNELS 6 Xposition Yposition Zposition Xrotation Yrotation Zrotation
										JOINT mixamorig:LeftHandIndex3
										{
											OFFSET 2.850006 0.000000 0.000352
											CHANNELS 6 Xposition Yposition Zposition Xrotation Yrotation Zrotation
											JOINT mixamorig:LeftHandIndex4
											{
												OFFSET 2.774864 -0.000031 -0.000027
												CHANNELS 6 Xposition Yposition Zposition Xrotation Yrotation Zrotation
												End Site
												{
													OFFSET 277.486267 0.000000 -0.009857
												}
											}
										}
									}
								}
								JOINT mixamorig:LeftHandMiddle1
								{
									OFFSET 9.533394 0.000061 0.000044
									CHANNELS 6 Xposition Yposition Zposition Xrotation Yrotation Zrotation
									JOINT mixamorig:LeftHandMiddle2
									{
										OFFSET 3.699989 -0.000015 -0.000231
										CHANNELS 6 Xposition Yposition Zposition Xrotation Yrotation Zrotation
										JOINT mixamorig:LeftHandMiddle3
										{
											OFFSET 2.949997 -0.000015 -0.000059
											CHANNELS 6 Xposition Yposition Zposition Xrotation Yrotation Zrotation
											JOINT mixamorig:LeftHandMiddle4
											{
												OFFSET 2.952896 0.000031 0.000063
												CHANNELS 6 Xposition Yposition Zposition Xrotation Yrotation Zrotation
												End Site
												{
													OFFSET 295.289337 0.000000 0.022810
												}
											}
										}
									}
								}
								JOINT mixamorig:LeftHandRing1
								{
									OFFSET 9.104523 -0.042999 -1.865074
									CHANNELS 6 Xposition Yposition Zposition Xrotation Yrotation Zrotation
									JOINT mixamorig:LeftHandRing2
									{
										OFFSET 3.150009 -0.000031 0.000043
										CHANNELS 6 Xposition Yposition Zposition Xrotation Yrotation Zrotation
										JOINT mixamorig:LeftHandRing3
										{
											OFFSET 2.949982 -0.000015 0.000040
											CHANNELS 6 Xposition Yposition Zposition Xrotation Yrotation Zrotation
											JOINT mixamorig:LeftHandRing4
											{
												OFFSET 2.644348 0.000000 0.000057
												CHANNELS 6 Xposition Yposition Zposition Xrotation Yrotation Zrotation
												End Site
												{
													OFFSET 264.434631 0.000000 0.012105
												}
											}
										}
									}
								}
								JOINT mixamorig:LeftHandPinky1
								{
									OFFSET 8.077789 -0.486847 -3.806259
									CHANNELS 6 Xposition Yposition Zposition Xrotation Yrotation Zrotation
									JOINT mixamorig:LeftHandPinky2
									{
										OFFSET 3.599953 0.000031 0.014727
										CHANNELS 6 Xposition Yposition Zposition Xrotation Yrotation Zrotation
										JOINT mixamorig:LeftHandPinky3
										{
											OFFSET 2.100021 0.000015 0.007705
											CHANNELS 6 Xposition Yposition Zposition Xrotation Yrotation Zrotation
											JOINT mixamorig:LeftHandPinky4
											{
												OFFSET 2.125504 0.000031 0.007517
												CHANNELS 6 Xposition Yposition Zposition Xrotation Yrotation Zrotation
												End Site
												{
													OFFSET 212.550781 0.000000 0.625752
												}
											}
										}
									}
								}
							}
						}
					}
				}
			}
		}
	}
	JOINT mixamorig:RightUpLeg
	{
		OFFSET -8.207787 -6.751648 -1.599560
		CHANNELS 6 Xposition Yposition Zposition Xrotation Yrotation Zrotation
		JOINT mixamorig:RightLeg
		{
			OFFSET -0.000002 -44.370117 0.345942
			CHANNELS 6 Xposition Yposition Zposition Xrotation Yrotation Zrotation
			JOINT mixamorig:RightFoot
			{
				OFFSET 0.000003 -44.423679 -3.043532
				CHANNELS 6 Xposition Yposition Zposition Xrotation Yrotation Zrotation
				JOINT mixamorig:RightToeBase
				{
					OFFSET -0.000002 -8.728671 10.710558
					CHANNELS 6 Xposition Yposition Zposition Xrotation Yrotation Zrotation
					JOINT mixamorig:RightToe_End
					{
						OFFSET -0.000001 -0.000679 9.278119
						CHANNELS 6 Xposition Yposition Zposition Xrotation Yrotation Zrotation
						End Site
						{
							OFFSET 0.000000 -0.067690 927.812134
						}
					}
				}
			}
		}
	}
	JOINT mixamorig:LeftUpLeg
	{
		OFFSET 8.207793 -6.751686 -1.599556
		CHANNELS 6 Xposition Yposition Zposition Xrotation Yrotation Zrotation
		JOINT mixamorig:LeftLeg
		{
			OFFSET -0.000004 -44.370014 0.346954
			CHANNELS 6 Xposition Yposition Zposition Xrotation Yrotation Zrotation
			JOINT mixamorig:LeftFoot
			{
				OFFSET -0.000001 -44.423672 -3.044401
				CHANNELS 6 Xposition Yposition Zposition Xrotation Yrotation Zrotation
				JOINT mixamorig:LeftToeBase
				{
					OFFSET -0.000002 -8.728669 10.710558
					CHANNELS 6 Xposition Yposition Zposition Xrotation Yrotation Zrotation
					JOINT mixamorig:LeftToe_End
					{
						OFFSET -0.000003 -0.000679 9.278133
						CHANNELS 6 Xposition Yposition Zposition Xrotation Yrotation Zrotation
						End Site
						{
							OFFSET 0.000000 -0.068021 927.813477
						}
					}
				}
			}
		}
	}
}
MOTION
Frames: 3
Frame Time: 0.033333
0.000006 104.270477 1.554256 0.000010 0.000003 -0.000113 -0.000005 10.181587 0.131522 0.000001 -0.000003 0.000084 -0.000000 9.893967 -1.470711 0.000001 0.000000 -0.000000 -0.000000 9.220802 -1.370642 0.000000 -0.000000 -0.000000 0.000001 16.740433 -2.049030 0.000000 -0.000000 -0.000000 0.000000 9.617859 1.685014 0.000000 0.000000 0.000000 0.000002 22.037384 7.501101 0.000000 -0.000000 0.000000 -4.569968 11.014880 -2.160881 0.000008 0.000001 -0.000038 -10.592879 -0.524726 -2.231951 74.949735 19.107744 -14.704627 -27.841515 0.000007 0.000539 -50.585388 111.495605 69.518410 -28.328814 0.000022 0.000029 -0.000316 -0.000044 0.000007 -2.464402 -1.573783 2.682332 -47.337907 -162.271989 -8.638711 -3.215260 -1.872579 1.924642 153.397484 31.816889 6.189044 -2.654958 -1.527875 1.513084 146.819561 27.099503 -35.636348 -2.018830 -1.151990 1.108064 -0.000003 -0.000002 0.000000 -9.108383 -0.517564 2.260163 108.012625 16.738874 -22.964039 -3.700058 0.000315 0.001536 102.767491 12.131582 -15.127124 -2.850066 0.000382 -0.000239 104.441823 8.406756 -10.832059 -2.772168 -0.000014 -0.000021 -0.000000 -0.000000 -0.000001 -9.532595 0.000261 0.000320 109.573248 16.178526 -22.972916 -3.700071 0.000330 0.004025 107.608783 11.232023 -15.178685 -2.950048 0.000351 -0.001755 109.545128 8.597210 -12.142362 -2.946638 0.000014 -0.000156 0.000000 0.000001 -0.000001 -9.103686 -0.042771 -1.864775 109.545566 17.365706 -24.343928 -3.379341 0.000279 -0.000716 109.107785 13.103954 -18.355683 -2.889771 0.000341 0.000709 113.128587 8.856430 -13.449950 -2.638812 -0.000013 0.000941 -0.000001 0.000001 0.000001 -8.076756 -0.486408 -3.805971 96.262910 21.847217 -24.131161 -3.600083 0.000265 -0.003423 105.526928 16.041254 -20.500280 -2.100022 0.000271 -0.005388 112.600648 10.049239 -14.671210 -2.115775 -0.000026 -0.003673 0.000000 0.000000 -0.000003 4.570446 11.014691 -2.160851 -0.000018 0.000010 -0.000021 10.592384 -0.524480 -2.232340 76.911400 -6.263055 4.975885 27.841850 0.000106 -0.000205 -66.361121 -112.831050 -89.120725 28.328846 -0.000029 0.000014 0.000022 -0.000090 0.000000 2.465891 -1.576096 2.681897 -51.485669 175.601691 22.043040 3.217843 -1.871819 1.916376 153.005868 -26.822052 26.259931 2.656100 -1.528651 1.514461 136.860762 -28.675070 44.689805 2.020899 -1.154070 1.115160 -0.000004 0.000005 0.000002 9.109374 -0.517871 2.259741 81.862310 -15.967620 13.858192 3.700053 0.000143 -0.000448 81.957407 -16.376396 14.264159 2.850049 0.000185 0.000207 80.605159 -14.144736 12.012667 2.774873 -0.000019 -0.000033 0.000001 0.000000 -0.000000 9.533472 0.000200 -0.000102 83.096239 -15.310076 13.577619 3.700071 0.000151 -0.000378 85.110960 -15.911506 14.620732 2.950075 0.000152 -0.000179 82.792186 -17.801776 15.723068 2.952870 -0.000017 0.000060 0.000000 0.000001 0.000001 9.104592 -0.042865 -1.865222 81.940516 -16.669020 14.501765 3.150038 0.000159 -0.000077 85.274085 -16.855414 15.538247 2.950021 0.000165 -0.000059 86.377229 -16.006395 15.038340 2.644317 0.000033 0.000059 -0.000000 -0.000002 0.000000 8.077851 -0.486759 -3.806402 68.075485 -20.355427 14.252897 3.600001 0.000157 0.014567 68.856968 -14.138099 10.076609 2.100051 0.000139 0.007550 70.252129 -11.599049 8.516384 2.125504 -0.000011 0.007515 0.000004 -0.000002 0.000003 -8.207786 -6.751667 -1.599560 -0.077001 -0.000003 0.000080 -0.000002 -44.370110 0.345938 0.153719 -0.000000 -0.000000 0.000000 -44.423679 -3.043532 -0.076700 0.000000 -0.000002 -0.000006 -8.728667 10.710559 -0.000009 -0.000000 -0.000000 -0.000001 -0.000679 9.278123 0.000000 -0.000000 -0.000000 8.207792 -6.751710 -1.599556 -0.074518 -0.000003 0.000081 -0.000002 -44.370014 0.346960 0.148822 0.000002 0.000000 -0.000001 -44.423664 -3.044403 -0.074314 0.000000 -0.000002 -0.000004 -8.728671 10.710558 0.000007 -0.000000 -0.000000 0.000000 -0.000680 9.278137 -0.000000 0.000000 -0.000001 
0.000006 104.270477 1.554256 0.000010 0.000003 -0.000113 -0.000005 10.181587 0.131522 0.000001 -0.000003 0.000084 -0.000000 9.893967 -1.470711 0.000001 0.000000 -0.000000 -0.000000 9.220802 -1.370642 0.000000 -0.000000 -0.000000 0.000001 16.740433 -2.049030 0.000000 -0.000000 -0.000000 0.000000 9.617859 1.685014 0.000000 0.000000 0.000000 0.000002 22.037384 7.501101 0.000000 -0.000000 0.000000 -4.569968 11.014880 -2.160881 0.000008 0.000001 -0.000038 -10.592875 -0.524753 -2.231914 76.688503 26.629062 -21.205892 -27.841516 -0.000003 0.000548 -48.830614 108.182834 64.167045 -28.328821 0.000022 0.000025 -0.000324 -0.000045 0.000007 -2.464399 -1.573760 2.682294 -50.501889 -161.910099 -16.621740 -3.215282 -1.872620 1.924652 153.592281 29.890892 -6.429859 -2.654969 -1.527874 1.513075 144.176332 27.535223 -36.403655 -2.018835 -1.151999 1.108066 -0.000003 -0.000002 0.000005 -9.108379 -0.517545 2.260160 108.708738 12.616043 -17.588383 -3.700053 0.000340 0.001536 106.751219 8.396938 -11.250372 -2.850050 0.000396 -0.000238 104.871134 5.360484 -6.965051 -2.772192 0.000000 -0.000021 0.000000 -0.000001 -0.000001 -9.532562 0.000291 0.000303 109.014307 10.211789 -14.471450 -3.700043 0.000349 0.004033 109.105517 6.938156 -9.609350 -2.950025 0.000358 -0.001747 107.858201 6.674230 -9.144096 -2.946624 0.000014 -0.000152 -0.000001 -0.000002 -0.000000 -9.103676 -0.042724 -1.864795 111.351044 10.699957 -15.558199 -3.379313 0.000322 -0.000745 112.398829 6.938290 -10.373636 -2.889764 0.000363 0.000704 113.703914 6.759334 -10.403647 -2.638811 -0.000001 0.000941 -0.000001 -0.000001 0.000001 -8.076736 -0.486401 -3.805952 103.357373 14.503326 -18.106949 -3.600038 0.000279 -0.003436 107.030314 7.021211 -9.012558 -2.100016 0.000315 -0.005402 109.905107 4.452273 -6.035944 -2.115766 -0.000035 -0.003679 0.000002 0.000000 -0.000004 4.570446 11.014691 -2.160851 -0.000018 0.000010 -0.000021 10.592407 -0.524465 -2.232373 76.867857 -14.037395 11.160194 27.841837 0.000062 -0.000188 -64.868362 -107.887476 -82.230533 28.328833 -0.000029 0.000022 0.000025 -0.000089 -0.000000 2.465874 -1.576039 2.681911 -52.096230 183.770051 27.337988 3.217858 -1.871859 1.916418 155.047097 -23.699436 42.335978 2.656113 -1.528702 1.514471 132.600227 -29.966297 54.867726 2.020906 -1.154084 1.115145 -0.000003 0.000005 0.000006 9.109377 -0.517858 2.259727 85.446151 -16.082396 14.855245 3.700031 0.000152 -0.000469 82.554311 -10.768392 9.473563 2.850052 0.000200 0.000182 81.725502 -8.199218 7.095037 2.774888 -0.000030 -0.000022 -0.000000 0.000002 -0.000000 9.533461 0.000214 -0.000104 86.173847 -15.270548 14.285695 3.700034 0.000181 -0.000388 86.582511 -9.866310 9.294830 2.950048 0.000173 -0.000207 87.294797 -10.039103 9.580886 2.952866 -0.000046 0.000061 -0.000002 -0.000000 0.000000 9.104590 -0.042852 -1.865231 84.508954 -15.437764 14.041438 3.150041 0.000195 -0.000097 89.033565 -12.448164 12.243339 2.950028 0.000196 -0.000079 91.396237 -11.348861 11.628741 2.644325 0.000047 0.000055 0.000002 -0.000001 -0.000000 8.077857 -0.486753 -3.806417 71.916237 -20.085361 15.091959 3.599995 0.000159 0.014598 73.022529 -17.602685 13.478297 2.100032 0.000158 0.007539 75.001816 -12.879918 10.278040 2.125513 -0.000016 0.007517 -0.000001 0.000004 -0.000001 -8.207786 -6.751667 -1.599560 -0.077001 -0.000003 0.000080 -0.000002 -44.370110 0.345938 0.153719 -0.000000 -0.000000 0.000000 -44.423679 -3.043532 -0.076700 0.000000 -0.000002 -0.000006 -8.728667 10.710559 -0.000009 -0.000000 -0.000000 -0.000001 -0.000679 9.278123 0.000000 -0.000000 -0.000000 8.207792 -6.751710 -1.599556 -0.074518 -0.000003 0.000081 -0.000002 -44.370014 0.346960 0.148822 0.000002 0.000000 -0.000001 -44.423664 -3.044403 -0.074314 0.000000 -0.000002 -0.000004 -8.728671 10.710558 0.000007 -0.000000 -0.000000 0.000000 -0.000680 9.278137 -0.000000 0.000000 -0.000001 
0.000006 104.270477 1.554256 0.000010 0.000003 -0.000113 -0.000005 10.181587 0.131522 0.000001 -0.000003 0.000084 -0.000000 9.893967 -1.470711 0.000001 0.000000 -0.000000 -0.000000 9.220802 -1.370642 0.000000 -0.000000 -0.000000 0.000001 16.740433 -2.049030 0.000000 -0.000000 -0.000000 0.000000 9.617859 1.685014 0.000000 0.000000 0.000000 0.000002 22.037384 7.501101 0.000000 -0.000000 0.000000 -4.569968 11.014880 -2.160881 0.000008 0.000001 -0.000038 -10.592861 -0.524790 -2.231860 76.739136 39.245253 -31.525927 -27.841520 0.000009 0.000567 -45.071264 104.498322 56.372669 -28.328831 0.000021 0.000027 -0.000323 -0.000043 0.000008 -2.464404 -1.573721 2.682260 -52.955911 -164.814336 -23.337913 -3.215277 -1.872617 1.924685 150.601232 28.812002 -13.500749 -2.654962 -1.527863 1.513059 142.486830 27.960855 -34.606451 -2.018838 -1.152017 1.108049 -0.000003 -0.000002 0.000000 -9.108366 -0.517541 2.260153 107.430898 12.160369 -16.571786 -3.700046 0.000326 0.001552 105.395283 9.182265 -12.004512 -2.850055 0.000385 -0.000227 103.070041 6.624580 -8.332173 -2.772139 0.000000 -0.000017 -0.000001 -0.000001 -0.000001 -9.532572 0.000286 0.000281 106.666627 10.276019 -13.953224 -3.700055 0.000349 0.004017 106.629293 8.607320 -11.414464 -2.950057 0.000338 -0.001738 105.222438 8.188501 -10.692599 -2.946634 0.000015 -0.000153 0.000001 -0.000004 0.000001 -9.103673 -0.042728 -1.864808 107.994491 11.019671 -15.066576 -3.379331 0.000331 -0.000738 108.157862 8.570155 -11.833816 -2.889758 0.000339 0.000715 109.944203 7.675824 -10.999778 -2.638792 -0.000016 0.000943 0.000001 0.000001 -0.000001 -8.076727 -0.486372 -3.805979 99.714246 13.389981 -15.676170 -3.600019 0.000313 -0.003461 103.132776 7.439540 -8.925889 -2.100015 0.000326 -0.005410 107.034399 4.819800 -6.220925 -2.115779 -0.000043 -0.003680 -0.000001 -0.000003 -0.000005 4.570446 11.014691 -2.160851 -0.000018 0.000010 -0.000021 10.592474 -0.524457 -2.232415 76.406758 -34.173042 27.199073 27.841843 0.000025 -0.000171 -64.723200 -103.700781 -77.787611 28.328817 -0.000030 0.000024 0.000022 -0.000090 -0.000000 2.466110 -1.576185 2.681904 -25.213401 159.766143 -40.462328 3.217861 -1.871880 1.916418 155.391257 -23.041616 45.291299 2.656088 -1.528675 1.514470 134.467765 -29.321650 52.507878 2.020894 -1.154060 1.115150 -0.000004 0.000002 0.000004 9.109397 -0.517849 2.259733 89.816940 -16.866906 16.801439 3.700039 0.000175 -0.000478 88.551968 -10.636748 10.388784 2.850049 0.000198 0.000201 87.064025 -8.116411 7.710887 2.774877 -0.000046 -0.000028 0.000002 -0.000000 0.000001 9.533475 0.000215 -0.000093 89.366878 -16.205237 16.020697 3.700045 0.000213 -0.000368 91.381142 -10.248511 10.494530 2.950046 0.000190 -0.000211 91.720766 -10.015465 10.322185 2.952853 -0.000029 0.000063 -0.000003 -0.000001 -0.000001 9.104602 -0.042835 -1.865212 89.748010 -16.083866 16.016146 3.150045 0.000205 -0.000078 92.756838 -13.979460 14.663431 2.950027 0.000188 -0.000068 93.789262 -12.130185 12.955220 2.644319 0.000030 0.000056 -0.000004 -0.000000 -0.000000 8.077846 -0.486732 -3.806416 78.082135 -20.388390 17.093435 3.600002 0.000159 0.014582 78.520135 -19.600503 16.519677 2.100049 0.000171 0.007562 80.438366 -14.712946 12.883748 2.125495 -0.000001 0.007514 -0.000002 0.000003 0.000000 -8.207786 -6.751667 -1.599560 -0.077001 -0.000003 0.000080 -0.000002 -44.370110 0.345938 0.153719 -0.000000 -0.000000 0.000000 -44.423679 -3.043532 -0.076700 0.000000 -0.000002 -0.000006 -8.728667 10.710559 -0.000009 -0.000000 -0.000000 -0.000001 -0.000679 9.278123 0.000000 -0.000000 -0.000000 8.207792 -6.751710 -1.599556 -0.074518 -0.000003 0.000081 -0.000002 -44.370014 0.346960 0.148822 0.000002 0.000000 -0.000001 -44.423664 -3.044403 -0.074314 0.000000 -0.000002 -0.000004 -8.728671 10.710558 0.000007 -0.000000 -0.000000 0.000000 -0.000680 9.278137 -0.000000 0.000000 -0.000001 
